<svg id="visual" viewBox="0 0 900 600" width="900" height="600" xmlns="http://www.w3.org/2000/svg" xmlns:xlink="http://www.w3.org/1999/xlink" version="1.1"><rect x="0" y="0" width="900" height="600" fill="#212529"></rect><path d="M0 445L100 445L100 450L200 450L200 474L300 474L300 468L400 468L400 428L500 428L500 439L600 439L600 470L700 470L700 470L800 470L800 443L900 443L900 442L900 601L900 601L800 601L800 601L700 601L700 601L600 601L600 601L500 601L500 601L400 601L400 601L300 601L300 601L200 601L200 601L100 601L100 601L0 601Z" fill="#29292b"></path><path d="M0 499L100 499L100 514L200 514L200 479L300 479L300 512L400 512L400 514L500 514L500 503L600 503L600 510L700 510L700 477L800 477L800 513L900 513L900 500L900 601L900 601L800 601L800 601L700 601L700 601L600 601L600 601L500 601L500 601L400 601L400 601L300 601L300 601L200 601L200 601L100 601L100 601L0 601Z" fill="#252526"></path><path d="M0 547L100 547L100 531L200 531L200 541L300 541L300 553L400 553L400 555L500 555L500 536L600 536L600 556L700 556L700 545L800 545L800 530L900 530L900 527L900 601L900 601L800 601L800 601L700 601L700 601L600 601L600 601L500 601L500 601L400 601L400 601L300 601L300 601L200 601L200 601L100 601L100 601L0 601Z" fill="#222222"></path></svg>